<mxfile host="app.diagrams.net" agent="Mozilla/5.0 (Windows NT 10.0; Win64; x64) AppleWebKit/537.36 (KHTML, like Gecko) Chrome/131.0.0.0 Safari/537.36" version="24.9.0">
  <diagram name="第 1 页" id="93ezY-hAGvn1a1ZBGGrm">
    <mxGraphModel dx="1221" dy="725" grid="1" gridSize="10" guides="1" tooltips="1" connect="1" arrows="1" fold="1" page="1" pageScale="1" pageWidth="827" pageHeight="1169" math="0" shadow="0">
      <root>
        <mxCell id="0" />
        <mxCell id="1" parent="0" />
        <mxCell id="vdWgvy9bEBL8WlxgDcjX-5" style="edgeStyle=orthogonalEdgeStyle;rounded=0;orthogonalLoop=1;jettySize=auto;html=1;exitX=1;exitY=0.5;exitDx=0;exitDy=0;entryX=0;entryY=0.5;entryDx=0;entryDy=0;" edge="1" parent="1" source="vdWgvy9bEBL8WlxgDcjX-1" target="vdWgvy9bEBL8WlxgDcjX-2">
          <mxGeometry relative="1" as="geometry" />
        </mxCell>
        <mxCell id="vdWgvy9bEBL8WlxgDcjX-1" value="SAP" style="rounded=1;whiteSpace=wrap;html=1;" vertex="1" parent="1">
          <mxGeometry x="190" y="100" width="80" height="30" as="geometry" />
        </mxCell>
        <mxCell id="vdWgvy9bEBL8WlxgDcjX-6" style="edgeStyle=orthogonalEdgeStyle;rounded=0;orthogonalLoop=1;jettySize=auto;html=1;exitX=1;exitY=0.5;exitDx=0;exitDy=0;" edge="1" parent="1" source="vdWgvy9bEBL8WlxgDcjX-2" target="vdWgvy9bEBL8WlxgDcjX-3">
          <mxGeometry relative="1" as="geometry" />
        </mxCell>
        <mxCell id="vdWgvy9bEBL8WlxgDcjX-2" value="SSIS ETL" style="rounded=1;whiteSpace=wrap;html=1;" vertex="1" parent="1">
          <mxGeometry x="310" y="100" width="90" height="30" as="geometry" />
        </mxCell>
        <mxCell id="vdWgvy9bEBL8WlxgDcjX-7" style="edgeStyle=orthogonalEdgeStyle;rounded=0;orthogonalLoop=1;jettySize=auto;html=1;exitX=1;exitY=0.5;exitDx=0;exitDy=0;entryX=0;entryY=0.5;entryDx=0;entryDy=0;" edge="1" parent="1" source="vdWgvy9bEBL8WlxgDcjX-3" target="vdWgvy9bEBL8WlxgDcjX-4">
          <mxGeometry relative="1" as="geometry" />
        </mxCell>
        <mxCell id="vdWgvy9bEBL8WlxgDcjX-3" value="Sql Server" style="rounded=1;whiteSpace=wrap;html=1;" vertex="1" parent="1">
          <mxGeometry x="434" y="100" width="80" height="30" as="geometry" />
        </mxCell>
        <mxCell id="vdWgvy9bEBL8WlxgDcjX-4" value="Tableau Server" style="rounded=1;whiteSpace=wrap;html=1;" vertex="1" parent="1">
          <mxGeometry x="550" y="100" width="100" height="30" as="geometry" />
        </mxCell>
      </root>
    </mxGraphModel>
  </diagram>
</mxfile>
